{"title":"Tian.zhu.ding.AKA.A.Touch.of.Sin.2013.DVDRip.x264","uid":9683864,"size":3022038689,"categoryP":"video","categoryS":"movies","magnet":"?xt=urn:btih:b5f2f50c862030281c622eacec057e4ca3bcee8a&amp;dn=Tian.zhu.ding.AKA.A.Touch.of.Sin.2013.DVDRip.x264&amp;tr=udp%3A%2F%2Ftracker.openbittorrent.com%3A80&amp;tr=udp%3A%2F%2Fopen.demonii.com%3A1337&amp;tr=udp%3A%2F%2Ftracker.coppersurfer.tk%3A6969&amp;tr=udp%3A%2F%2Fexodus.desync.com%3A6969","seeders":4,"leechers":1,"uploader":"noriegaRJ","files":-1,"time":1393716969,"description":"Title: Tian Zhu Ding aka A Touch Of Sin\n\n\nIMDB Link:                         &lt;a href=&quot;\nhttp://www.imdb.com/title/tt2852400/&quot; rel=&quot;nofollow&quot; target=&quot;_NEW&quot;&gt;\nhttp://www.imdb.com/title/tt2852400/&lt;/a&gt;\n\n\nPlot: Four independent stories set in modern China about random acts of violence.\n\nA film by Jia Zhangke.\n\n\n\nGeneral\nComplete name                            : Tian.zhu.ding.AKA.A.Touch.of.Sin.2013.DVDRip.x264\nFormat                                   : Matroska\nFormat version                           : Version 2\nFile size                                : 2.81 GiB\nDuration                                 : 2h 9mn\nOverall bit rate                         : 3 110 Kbps\nWriting application                      : HandBrake 0.9.9\nWriting library                          : libmkv 0.6.5\n\nVideo\nID                                       : 1\nFormat                                   : AVC\nFormat/Info                              : Advanced Video Codec\nFormat profile                           : &lt;a class=&quot;__cf_email__&quot; href=&quot;/cdn-cgi/l/email-protection&quot; data-cfemail=&quot;0a42636d624a4639243b&quot;&gt;[email&amp;#160;protected]&lt;/a&gt;&lt;script cf-hash='f9e31' type=&quot;text/javascript&quot;&gt;\n/* &lt;![CDATA[ */!function(){try{var t=&quot;currentScript&quot;in document?document.currentScript:function(){for(var t=document.getElementsByTagName(&quot;script&quot;),e=t.length;e--;)if(t[e].getAttribute(&quot;cf-hash&quot;))return t[e]}();if(t&amp;&amp;t.previousSibling){var e,r,n,i,c=t.previousSibling,a=c.getAttribute(&quot;data-cfemail&quot;);if(a){for(e=&quot;&quot;,r=parseInt(a.substr(0,2),16),n=2;a.length-n;n+=2)i=parseInt(a.substr(n,2),16)^r,e+=String.fromCharCode(i);e=document.createTextNode(e),c.parentNode.replaceChild(e,c)}}}catch(u){}}();/* ]]&gt; */&lt;/script&gt;\nFormat settings, CABAC                   : Yes\nFormat settings, ReFrames                : 11 frames\nCodec ID                                 : V_MPEG4/ISO/AVC\nBit rate                                 : 2 350 Kbps\nWidth                                    : 720 pixels\nHeight                                   : 364 pixels\nDisplay aspect ratio                     : 2.35:1\nOriginal display aspect ratio            : 2.35:1\nFrame rate mode                          : Variable\nColor space                              : YUV\nChroma subsampling                       : 4:2:0\nBit depth                                : 8 bits\nScan type                                : Progressive\nWriting library                          : x264 core 130 r2273 b3065e6\nLanguage                                 : English\nDefault                                  : Yes\nForced                                   : No\nColor primaries                          : BT.601 NTSC\nTransfer characteristics                 : BT.709\nMatrix coefficients                      : BT.601\n\nAudio #1\nID                                       : 2\nFormat                                   : AC-3\nFormat/Info                              : Audio Coding 3\nMode extension                           : CM (complete main)\nFormat settings, Endianness              : Big\nCodec ID                                 : A_AC3\nDuration                                 : 2h 9mn\nBit rate mode                            : Constant\nBit rate                                 : 384 Kbps\nChannel count                            : 6 channels\nChannel positions                        : Front: L C R, Side: L R, LFE\nSampling rate                            : 48.0 KHz\nBit depth                                : 16 bits\nCompression mode                         : Lossy\nStream size                              : 356 MiB (12%)\nLanguage                                 : Chinese\nDefault                                  : Yes\nForced                                   : No\n\nAudio #2\nID                                       : 3\nFormat                                   : AC-3\nFormat/Info                              : Audio Coding 3\nMode extension                           : CM (complete main)\nFormat settings, Endianness              : Big\nCodec ID                                 : A_AC3\nDuration                                 : 2h 9mn\nBit rate mode                            : Constant\nBit rate                                 : 384 Kbps\nChannel count                            : 6 channels\nChannel positions                        : Front: L C R, Side: L R, LFE\nSampling rate                            : 48.0 KHz\nBit depth                                : 16 bits\nCompression mode                         : Lossy\nStream size                              : 356 MiB (12%)\nLanguage                                 : Portuguese\nDefault                                  : No\nForced                                   : No\n\nText\nID                                       : 4\nFormat                                   : VobSub\nCodec ID                                 : S_VOBSUB\nCodec ID/Info                            : The same subtitle format used on DVDs\nLanguage                                 : Portuguese\nDefault                                  : No\nForced                                   : No\n\n\n\nThanks to those helping me seed. Leechers remember, the community depends on you. If nobody shares, the freebies go away. Remember, the only reason you can download this free movie is because others are generous enough to keep sharing it with you. If nobody shares, everybody loses, so even if its for an extra hour or two after you get it, remember, others want to see it too, and they can't without you.\n\n\nSEE MY OTHERS UPLOADS:                                                 &lt;a href=&quot;\nhttp://thepiratebay.se/user/noriegaRJ&quot; rel=&quot;nofollow&quot; target=&quot;_NEW&quot;&gt;\nhttp://thepiratebay.se/user/noriegaRJ&lt;/a&gt;\n\nAND SEE THIS ANOTHERS UPLOADS FROM &quot;HORiZON-ArtSubs&quot;: &lt;a href=&quot;\nhttp://thepiratebay.se/user/artsubs&quot; rel=&quot;nofollow&quot; target=&quot;_NEW&quot;&gt;\nhttp://thepiratebay.se/user/artsubs&lt;/a&gt; &lt;a href=&quot;\nhttp://thepiratebay.se/user/lletaif&quot; rel=&quot;nofollow&quot; target=&quot;_NEW&quot;&gt;\nhttp://thepiratebay.se/user/lletaif&lt;/a&gt;\t\t\t\t\t","torrent":{"xt":"urn:btih:b5f2f50c862030281c622eacec057e4ca3bcee8a","amp;dn":"Tian.zhu.ding.AKA.A.Touch.of.Sin.2013.DVDRip.x264","amp;tr":["udp%3A%2F%2Ftracker.openbittorrent.com%3A80","udp%3A%2F%2Fopen.demonii.com%3A1337","udp%3A%2F%2Ftracker.coppersurfer.tk%3A6969","udp%3A%2F%2Fexodus.desync.com%3A6969"],"infoHash":"b5f2f50c862030281c622eacec057e4ca3bcee8a","infoHashBuffer":{"type":"Buffer","data":[181,242,245,12,134,32,48,40,28,98,46,172,236,5,126,76,163,188,238,138]},"announce":[],"urlList":[]}}